<svg version="1.1" width="784.814" height="340.29" viewBox="0 0 207.648 90.035" xmlns="http://www.w3.org/2000/svg">
    <path fill="#ab2328"
          d="M2.368.291a3.784 3.784 0 0 0-2.036 5.06c11.012 22.176 21.976 44.352 33.04 66.48.744 1.584 3.124 2.08 4.416 1.484 2.132-.94 3.076-3.076 2.132-5.06L7.08 2.275C6.184.54 4.2-.553 2.368.291"
          font-size="25.4"/>
    <path fill="#060606"
          d="M72.512 20.183c-6.944 0-12.6 4.616-16.368 8.436l-.248-4.76c0-2.04-1.44-3.724-3.476-3.724a3.75 3.75 0 0 0-3.72 3.72v62.46c0 2.032 1.64 3.72 3.72 3.72 2.036 0 3.72-1.688 3.72-3.72V63.891c4.02 4.216 9.428 8.036 15.928 8.036 13.692 0 23.56-12.748 23.56-26.24 0-13.448-9.62-25.504-23.116-25.504m-.148 7.44c9.428 0 15.728 8.488 15.728 17.912 0 9.524-6.3 18.952-15.924 18.952-9.972 0-15.976-8.832-15.976-18.108 0-9.376 6.104-18.752 16.172-18.752m34.18-21.58v62.36c0 1.932 1.64 3.72 3.82 3.72 2.036 0 3.72-1.688 3.72-3.72v-28.08c0-6.152 5.76-12.9 14.984-12.9 9.724 0 12.304 6.548 12.304 17.364l-.052 23.516v.048c0 2.036 1.688 3.72 3.72 3.72 2.04 0 3.72-1.684 3.72-3.72v-.048l.052-23.416v-.448c0-14.88-5.604-24.408-20.34-24.408-5.308 0-11.212 3.376-14.484 8.832V6.047a3.75 3.75 0 0 0-3.72-3.72 3.713 3.713 0 0 0-3.72 3.72m77.984 14.136c-6.944 0-12.6 4.616-16.372 8.436l-.248-4.76c0-2.04-1.44-3.724-3.472-3.724a3.75 3.75 0 0 0-3.72 3.72v62.46c0 2.032 1.64 3.72 3.72 3.72 2.032 0 3.72-1.688 3.72-3.72V63.891c4.02 4.216 9.428 8.036 15.924 8.036 13.692 0 23.564-12.748 23.564-26.24 0-13.448-9.624-25.504-23.12-25.504m-.148 7.44c9.424 0 15.724 8.488 15.724 17.912 0 9.524-6.3 18.952-15.92 18.952-9.976 0-15.976-8.832-15.976-18.108 0-9.376 6.1-18.752 16.172-18.752"
          font-size="25.4"/>
</svg>
